<svg width="43" height="32" viewBox="0 0 43 32" fill="none" xmlns="http://www.w3.org/2000/svg">
<g clip-path="url(#clip0_28738_26923)">
<path d="M0 0H43V32H0V0Z" fill="#EE1C25"/>
<path d="M5.16007 11.8402L8.06254 3.2002L10.965 11.8402L3.2251 6.5602H12.9L5.16007 11.8402Z" fill="#FFFF00"/>
<path d="M17.749 3.36574L14.762 4.02255L16.7545 1.71877L16.559 4.81935L14.9014 2.0744L17.749 3.36574Z" fill="#FFFF00"/>
<path d="M20.7635 7.1564L17.7536 6.61229L20.4905 5.2556L19.0985 8.03829L18.6436 4.87029L20.7635 7.1564Z" fill="#FFFF00"/>
<path d="M20.3243 12.4749L17.7997 10.76L20.8563 10.6289L18.4416 12.6063L19.3283 9.52965L20.3243 12.4749Z" fill="#FFFF00"/>
<path d="M16.5274 15.9492L14.8663 13.3999L17.7367 14.4504L14.7397 15.3489L16.7552 12.8508L16.5274 15.9492Z" fill="#FFFF00"/>
</g>
<defs>
<clipPath id="clip0_28738_26923">
<rect width="43" height="32" rx="8" fill="white"/>
</clipPath>
</defs>
</svg>
